<svg width="761" height="140" viewBox="0 0 761 140" fill="none" xmlns="http://www.w3.org/2000/svg">
<g clip-path="url(#clip0_175_50)">
<g clip-path="url(#clip1_175_50)">
<path d="M758.41 43.26C758.41 43.26 758.39 43.26 758.38 43.26C750.06 43.79 743.11 47.5 738.58 53.77C738.39 54.01 738.1 54.16 737.78 54.16C737.22 54.16 736.76 53.7 736.76 53.14V47.12C736.76 46.51 736.53 45.91 736.06 45.44C735.26 44.64 734.02 44.53 733.1 45.12L721.34 53.08C720.68 53.5 720.25 54.24 720.25 55.08V110.16C720.25 111.47 721.31 112.53 722.62 112.53H734.39C735.7 112.53 736.76 111.47 736.76 110.16V78.31C736.76 66.32 745.49 58.11 758.65 57.42V57.4C759.85 57.28 760.78 56.27 760.78 55.04V45.62C760.78 44.31 759.72 43.25 758.41 43.25V43.26Z" fill="currentColor"/>
<path d="M703.82 54.28C698.03 47.03 689.56 43.2 679.34 43.2C659.68 43.2 644.86 58.36 644.86 78.46C644.86 98.56 660.07 114.11 680.25 114.11C689.7 114.11 700.28 110.34 706.34 104.98C707.24 104.05 707.23 102.57 706.32 101.65C706.2 101.53 706.07 101.42 705.93 101.34C705.93 101.34 697.19 95.41 696.82 95.18C696.45 94.95 696.02 94.81 695.55 94.81C695.08 94.81 694.68 94.94 694.32 95.15C690.38 97.69 684.88 99.41 680.13 99.41C671.56 99.41 664.73 94.03 662.3 85.57C662.29 85.51 662.28 85.45 662.28 85.39C662.28 84.83 662.74 84.37 663.3 84.37H710.14C711.36 84.37 712.35 83.45 712.49 82.26C712.21 70.72 709.25 61.05 703.84 54.27L703.82 54.28ZM695.27 71.63H663.53C662.97 71.63 662.51 71.17 662.51 70.61C662.51 70.51 662.53 70.42 662.56 70.33C665.28 62.72 671.95 57.89 680 57.89C688.05 57.89 693.97 62.43 696.26 70.4C696.27 70.47 696.29 70.54 696.29 70.61C696.29 71.17 695.83 71.63 695.27 71.63Z" fill="currentColor"/>
<path d="M634.72 20.35C634.24 20.35 633.8 20.49 633.43 20.73L621.57 28.76C620.97 29.19 620.58 29.89 620.58 30.69V110.18C620.58 111.49 621.64 112.55 622.95 112.55H634.72C636.01 112.55 637.06 111.51 637.09 110.23V22.72C637.09 21.41 636.03 20.35 634.72 20.35Z" fill="currentColor"/>
<path d="M606.61 20.35C606.13 20.35 605.69 20.49 605.32 20.73L593.46 28.76C592.86 29.19 592.47 29.89 592.47 30.69V110.18C592.47 111.49 593.53 112.55 594.84 112.55H606.61C607.9 112.55 608.95 111.51 608.98 110.23V22.72C608.98 21.41 607.92 20.35 606.61 20.35Z" fill="currentColor"/>
<path d="M576.04 54.28C570.25 47.03 561.78 43.2 551.56 43.2C531.9 43.2 517.08 58.36 517.08 78.46C517.08 98.56 532.29 114.11 552.47 114.11C561.92 114.11 572.5 110.34 578.56 104.98C579.46 104.05 579.45 102.57 578.54 101.65C578.42 101.53 578.29 101.42 578.15 101.34C578.15 101.34 569.41 95.41 569.04 95.18C568.67 94.95 568.24 94.81 567.77 94.81C567.3 94.81 566.9 94.94 566.54 95.15C562.6 97.69 557.1 99.41 552.35 99.41C543.78 99.41 536.95 94.03 534.52 85.57C534.51 85.51 534.5 85.45 534.5 85.39C534.5 84.83 534.96 84.37 535.52 84.37H582.36C583.58 84.37 584.57 83.45 584.71 82.26C584.43 70.72 581.47 61.05 576.06 54.27L576.04 54.28ZM567.49 71.63H535.75C535.19 71.63 534.73 71.17 534.73 70.61C534.73 70.51 534.75 70.42 534.78 70.33C537.5 62.72 544.17 57.89 552.22 57.89C560.27 57.89 566.19 62.43 568.48 70.4C568.49 70.47 568.51 70.54 568.51 70.61C568.51 71.17 568.05 71.63 567.49 71.63Z" fill="currentColor"/>
<path d="M489.39 71.25C479.34 68.33 475.87 67.1 475.87 63C475.87 59.63 479.7 57.36 485.4 57.36C489.52 57.36 494.1 58.44 498.54 60.38V60.36C499.32 60.73 500.26 60.66 500.97 60.14C500.97 60.14 509.64 54.28 509.75 54.2C509.86 54.12 509.96 54.04 510.05 53.94C510.16 53.83 510.26 53.71 510.34 53.58L510.39 53.49C510.95 52.58 510.83 51.37 510.05 50.58C509.99 50.52 509.92 50.47 509.85 50.42C502.35 45.83 493.54 43.19 485.4 43.19C470.3 43.19 459.75 52.03 459.75 64.69C459.88 76.44 468.33 80.85 483.89 84.87C491 86.8 497.15 88.47 497.15 93.51C497.15 97.42 492.95 100.06 486.71 100.06C480.47 100.06 474.95 98.48 469.31 95.39H469.3C468.56 95.02 467.66 95.05 466.95 95.5C466.95 95.5 458.59 101.16 458.48 101.23C458.37 101.3 458.27 101.39 458.17 101.49C458.06 101.6 457.96 101.72 457.88 101.85L457.86 101.88C457.26 102.8 457.37 104.04 458.17 104.85C458.24 104.92 458.31 104.98 458.38 105.03C466.16 110.73 476.52 114.1 486.46 114.1C502.42 114.1 513.15 105.46 513.15 92.6C513.15 77.79 499.42 74.01 489.41 71.25H489.39Z" fill="currentColor"/>
<path d="M422.4 43.2C414 43.2 406.6 46.48 401.17 52.51V52.49C400.98 52.72 400.7 52.86 400.38 52.86C399.82 52.86 399.36 52.4 399.36 51.84V47.12C399.36 46.51 399.13 45.91 398.67 45.44C397.87 44.64 396.63 44.53 395.71 45.12L383.94 53.09C383.29 53.51 382.86 54.25 382.86 55.08V137.62C382.86 138.93 383.92 139.99 385.23 139.99C385.73 139.99 386.19 139.84 386.57 139.57L398.26 131.65C398.92 131.23 399.36 130.49 399.36 129.65V105.44C399.36 104.88 399.82 104.42 400.38 104.42C400.69 104.42 400.98 104.56 401.16 104.79V104.77C406.58 110.81 413.99 114.1 422.39 114.1C440.41 114.1 453.49 99.16 453.49 78.58C453.49 58 440.41 43.19 422.39 43.19L422.4 43.2ZM418.11 99.93C407.15 99.93 399.49 91.15 399.49 78.58C399.49 66.01 407.15 57.36 418.11 57.36C429.07 57.36 437.12 66.08 437.12 78.58C437.12 91.08 429.13 99.93 418.11 99.93Z" fill="currentColor"/>
<path d="M355.07 110.17C355.07 111.48 356.13 112.54 357.44 112.54H368.81C370.12 112.54 371.18 111.48 371.18 110.17V69.49C371.18 54.25 360.72 43.19 346.31 43.19C337.22 43.19 329.32 47.32 325.45 53.88C325.28 54.2 324.94 54.43 324.54 54.43C324.17 54.43 323.84 54.23 323.67 53.93C319.18 47.07 311.85 43.18 303.22 43.18C296.45 43.18 290.52 45.83 286.63 50.43C286.44 50.62 286.17 50.75 285.88 50.75C285.32 50.75 284.86 50.29 284.86 49.73V47.1C284.86 46.49 284.63 45.89 284.17 45.42C283.36 44.61 282.13 44.51 281.21 45.1L269.44 53.07C268.79 53.49 268.36 54.23 268.36 55.06V110.14C268.36 111.45 269.42 112.51 270.73 112.51H282.49C283.8 112.51 284.86 111.45 284.86 110.14V71.02C284.86 62.96 290.75 57.33 299.2 57.33C306.72 57.33 311.98 63.39 311.98 72.05V110.13C311.98 111.44 313.04 112.5 314.35 112.5H325.72C327.03 112.5 328.09 111.44 328.09 110.13V71.01C328.09 62.95 333.98 57.32 342.43 57.32C349.88 57.32 355.08 63.38 355.08 72.04V110.12L355.07 110.17Z" fill="currentColor"/>
<path d="M240.17 104.31V110.17C240.17 111.48 241.23 112.54 242.54 112.54H254.3C255.61 112.54 256.67 111.48 256.67 110.17V47.12C256.67 46.51 256.44 45.91 255.98 45.44C255.18 44.64 253.94 44.53 253.02 45.12L241.24 53.09C240.59 53.51 240.17 54.24 240.17 55.07V87.48C239.14 94.57 232.31 99.92 224.28 99.92C216.25 99.92 210.46 93.65 210.46 84.67V47.11C210.46 45.8 209.4 44.74 208.09 44.74C207.52 44.74 207.13 44.88 206.72 45.17L195.46 52.79C194.86 53.22 194.47 53.92 194.47 54.72V87.79C194.47 103.28 204.86 114.09 219.73 114.09C227.94 114.09 235.67 110.36 240.17 104.3V104.31Z" fill="currentColor"/>
<path d="M180.43 20.35C179.91 20.35 179.44 20.51 179.05 20.79L167.13 28.86C166.47 29.28 166.04 30.02 166.04 30.86V82.09C166.04 91.91 159.98 98.76 151.32 98.76C146.02 98.76 140.6 95.92 137.06 91.55C137.06 91.55 137 91.49 136.97 91.46C136.18 90.67 134.98 90.55 134.06 91.11L125.05 97.2C124.91 97.29 124.78 97.39 124.66 97.51C123.81 98.37 123.75 99.71 124.47 100.64C130.69 108.64 142.02 114.1 152.74 114.1C170.44 114.1 182.81 101.36 182.81 83.13V22.72C182.81 21.41 181.75 20.35 180.44 20.35H180.43Z" fill="currentColor"/>
<path d="M13.69 88.59C41.71 85.62 51.85 79.64 70.9 20.12C72.24 15.93 72.5 13.53 69.99 10.09C69.19 9.00001 68.56 8.09001 68.07 7.35001L65.72 4.11001C65.25 3.46001 63.05 0.430013 60.9 0.0500129C58.75 -0.329987 55.64 1.76001 54.97 2.21001L18.82 26.69C16.08 28.55 15.69 30.76 15.52 31.69L6.91999 80.44C5.76999 86.96 5.36999 89.3 13.69 88.6V88.59Z" fill="currentColor"/>
<path d="M91.34 39.47L85.02 30.74C81.43 25.92 79.08 22.39 77.44 29.32C68.3 67.75 62.52 86.03 50.92 96.66C37.65 108.83 20.06 111.77 9.31004 113.44C1.59004 114.64 0.83004 115.33 0.53004 116.7L0.17004 118.76C-0.48996 122.52 0.82004 124.38 4.57004 125.05L71.1 136.78C74.85 137.44 76.72 136.13 77.39 132.38L77.81 130L92.75 45.29C92.91 44.36 93.3 42.16 91.36 39.47H91.34Z" fill="currentColor"/>
</g>
</g>
<defs>
<clipPath id="clip0_175_50">
<rect width="761" height="140" fill="white"/>
</clipPath>
<clipPath id="clip1_175_50">
<rect width="760.78" height="140" fill="white"/>
</clipPath>
</defs>
</svg>
