<svg role="img" viewBox="-1 -1 95 140" xmlns="http://www.w3.org/2000/svg" fill="currentColor">
  <title>JumpSeller</title>
  <path d="M13.69 88.59C41.71 85.62 51.85 79.64 70.9 20.12C72.24 15.93 72.5 13.53 69.99 10.09C69.19 9.00001 68.56 8.09001 68.07 7.35001L65.72 4.11001C65.25 3.46001 63.05 0.430013 60.9 0.0500129C58.75 -0.329987 55.64 1.76001 54.97 2.21001L18.82 26.69C16.08 28.55 15.69 30.76 15.52 31.69L6.91999 80.44C5.76999 86.96 5.36999 89.3 13.69 88.6V88.59Z"/>
  <path d="M91.34 39.47L85.02 30.74C81.43 25.92 79.08 22.39 77.44 29.32C68.3 67.75 62.52 86.03 50.92 96.66C37.65 108.83 20.06 111.77 9.31004 113.44C1.59004 114.64 0.83004 115.33 0.53004 116.7L0.17004 118.76C-0.48996 122.52 0.82004 124.38 4.57004 125.05L71.1 136.78C74.85 137.44 76.72 136.13 77.39 132.38L77.81 130L92.75 45.29C92.91 44.36 93.3 42.16 91.36 39.47H91.34Z"/>
</svg>
